<svg xmlns="http://www.w3.org/2000/svg" xmlns:xlink="http://www.w3.org/1999/xlink"
     viewBox="0 0 980 300" width="980" height="300" role="img" aria-label="kbeatz logo">
  <title>kbeatz</title>
  <defs>
    <radialGradient id="bg-gradient" cx="50%" cy="40%" r="80%">
      <stop offset="0%" stop-color="#1c1828"/>
      <stop offset="100%" stop-color="#0d0b12"/>
    </radialGradient>

    <!-- silver CD surface -->
    <radialGradient id="disc-base" cx="42%" cy="38%" r="75%">
      <stop offset="0%" stop-color="#f4f6f9"/>
      <stop offset="55%" stop-color="#c3c9d4"/>
      <stop offset="100%" stop-color="#8d94a2"/>
    </radialGradient>

    <!-- userSpaceOnUse (letter-local coords): a default objectBoundingBox
         gradient collapses on the zero-width vertical stem path -->
    <linearGradient id="k-accent" gradientUnits="userSpaceOnUse"
                    x1="0" y1="12" x2="0" y2="168">
      <stop offset="0%" stop-color="#7C5CFF"/>
      <stop offset="100%" stop-color="#FF5A8F"/>
    </linearGradient>
    <linearGradient id="pulse-gradient" x1="0%" y1="0%" x2="100%" y2="0%">
      <stop offset="0%" stop-color="#2EC4B6"/>
      <stop offset="55%" stop-color="#7C5CFF"/>
      <stop offset="100%" stop-color="#FF5A8F"/>
    </linearGradient>

    <filter id="sheen" x="-30%" y="-30%" width="160%" height="160%">
      <feGaussianBlur stdDeviation="5"/>
    </filter>

    <!-- punches the centre hole through the whole disc group -->
    <mask id="disc-hole">
      <circle cx="200" cy="174" r="79" fill="#ffffff"/>
      <circle cx="200" cy="174" r="12" fill="#000000"/>
    </mask>

    <!-- wordmark letter skeletons, stroked with round caps -->
    <g id="wm-k" fill="none" stroke-linecap="round" stroke-linejoin="round">
      <path d="M 20 12 L 20 168"/>
      <path d="M 20 130 L 80 88"/>
      <path d="M 44 113 L 88 168"/>
    </g>
    <g id="wm-b" fill="none" stroke-linecap="round" stroke-linejoin="round">
      <path d="M 20 12 L 20 168"/>
      <path d="M 21 127 a 41 41 0 1 0 82 0 a 41 41 0 1 0 -82 0"/>
    </g>
    <g id="wm-e" fill="none" stroke-linecap="round" stroke-linejoin="round">
      <path d="M 96 127 A 41 41 0 1 0 86.4 153.3"/>
      <path d="M 18 127 L 94 127"/>
    </g>
    <g id="wm-a" fill="none" stroke-linecap="round" stroke-linejoin="round">
      <path d="M 11 127 a 41 41 0 1 0 82 0 a 41 41 0 1 0 -82 0"/>
      <path d="M 93 90 L 93 168"/>
    </g>
    <g id="wm-t" fill="none" stroke-linecap="round" stroke-linejoin="round">
      <path d="M 48 30 L 48 146 Q 48 168 70 168"/>
      <path d="M 14 78 L 82 78"/>
    </g>
    <g id="wm-z" fill="none" stroke-linecap="round" stroke-linejoin="round">
      <path d="M 14 86 L 88 86 L 14 168 L 92 168"/>
    </g>
  </defs>


  <!-- icon: a shelf of CD case spines with a disc pulled out in front -->
  <ellipse cx="170" cy="255" rx="140" ry="10" fill="#000000" opacity="0.35"/>

  <g>
    <rect x="58"  y="80" width="20" height="172" rx="4" fill="#2EC4B6"/>
    <rect x="62"  y="92" width="12" height="5"   rx="2.5" fill="#ffffff" opacity="0.35"/>
    <rect x="84"  y="94" width="20" height="158" rx="4" fill="#FFB627"/>
    <rect x="88"  y="106" width="12" height="5"  rx="2.5" fill="#ffffff" opacity="0.35"/>
    <rect x="110" y="74" width="20" height="178" rx="4" fill="#FF5A5F"/>
    <rect x="114" y="86" width="12" height="5"   rx="2.5" fill="#ffffff" opacity="0.35"/>
    <g transform="rotate(8 136 252)">
      <rect x="136" y="82" width="20" height="170" rx="4" fill="#3D9BE9"/>
      <rect x="140" y="94" width="12" height="5"   rx="2.5" fill="#ffffff" opacity="0.35"/>
    </g>
  </g>

  <g mask="url(#disc-hole)">
    <circle cx="200" cy="174" r="78" fill="url(#disc-base)"/>
    <!-- iridescent reflections -->
    <g filter="url(#sheen)">
      <path d="M 200 174 L 126.7 147.3 A 78 78 0 0 1 161 106.5 Z" fill="#37d6e6" opacity="0.4"/>
      <path d="M 200 174 L 273.3 200.7 A 78 78 0 0 1 226.7 247.3 Z" fill="#e64fc4" opacity="0.4"/>
      <path d="M 200 174 L 239 106.5 A 78 78 0 0 1 267.5 135 Z" fill="#ffd84d" opacity="0.35"/>
      <path d="M 200 174 L 132.5 213 A 78 78 0 0 0 173 250.2 Z" fill="#7C5CFF" opacity="0.3"/>
    </g>
    <!-- groove rings -->
    <circle cx="200" cy="174" r="68" fill="none" stroke="#5e6675" stroke-width="1.5" opacity="0.25"/>
    <circle cx="200" cy="174" r="56" fill="none" stroke="#5e6675" stroke-width="1.5" opacity="0.25"/>
    <circle cx="200" cy="174" r="44" fill="none" stroke="#5e6675" stroke-width="1.5" opacity="0.25"/>
    <!-- hub -->
    <circle cx="200" cy="174" r="30" fill="#dfe3e9"/>
    <circle cx="200" cy="174" r="30" fill="none" stroke="#b6bcc7" stroke-width="2"/>
    <circle cx="200" cy="174" r="18" fill="#eef0f4"/>
    <circle cx="200" cy="174" r="13.5" fill="none" stroke="#9aa1ad" stroke-width="2"/>
    <!-- rim -->
    <circle cx="200" cy="174" r="78" fill="none" stroke="#5d6573" stroke-width="2" opacity="0.8"/>
    <circle cx="200" cy="174" r="75.5" fill="none" stroke="#ffffff" stroke-width="1" opacity="0.3"/>
  </g>

  <!-- wordmark -->
  <g stroke-width="26">
    <use xlink:href="#wm-k" transform="translate(300,30)" stroke="url(#k-accent)"/>
    <use xlink:href="#wm-b" transform="translate(410,30)" stroke="#2B2833"/>
    <use xlink:href="#wm-e" transform="translate(530,30)" stroke="#2B2833"/>
    <use xlink:href="#wm-a" transform="translate(642,30)" stroke="#2B2833"/>
    <use xlink:href="#wm-t" transform="translate(752,30)" stroke="#2B2833"/>
    <use xlink:href="#wm-z" transform="translate(854,30)" stroke="#2B2833"/>
  </g>

  <!-- audio pulse underline -->
  <path d="M 310 238 H 590 l 12 -30 l 14 56 l 12 -44 l 10 18 H 952"
        fill="none" stroke="url(#pulse-gradient)" stroke-width="5"
        stroke-linecap="round" stroke-linejoin="round"/>
</svg>
